<svg width="331" height="78" viewBox="0 0 331 78" fill="none" xmlns="http://www.w3.org/2000/svg">
<rect y="6" width="17" height="36" fill="#2669E3"/>
<rect y="42" width="17" height="36" fill="#FFE358"/>
<path d="M35.34 41.624V17.144H39.66L40.02 18.908H40.164C40.86 18.284 41.64 17.768 42.504 17.36C43.392 16.928 44.304 16.712 45.24 16.712C47.4 16.712 49.104 17.54 50.352 19.196C51.6 20.828 52.224 23.024 52.224 25.784C52.224 27.824 51.864 29.564 51.144 31.004C50.424 32.444 49.488 33.548 48.336 34.316C47.208 35.06 45.996 35.432 44.7 35.432C43.932 35.432 43.188 35.276 42.468 34.964C41.748 34.628 41.076 34.16 40.452 33.56L40.632 36.404V41.624H35.34ZM43.476 31.112C44.388 31.112 45.168 30.692 45.816 29.852C46.464 29.012 46.788 27.68 46.788 25.856C46.788 22.64 45.756 21.032 43.692 21.032C42.66 21.032 41.64 21.572 40.632 22.652V29.96C41.112 30.392 41.592 30.692 42.072 30.86C42.552 31.028 43.02 31.112 43.476 31.112ZM55.9767 35V17.144H60.2967L60.6567 20.276H60.8007C61.4487 19.076 62.2287 18.188 63.1407 17.612C64.0527 17.012 64.9647 16.712 65.8767 16.712C66.3807 16.712 66.8007 16.748 67.1367 16.82C67.4727 16.868 67.7607 16.952 68.0007 17.072L67.1367 21.644C66.8247 21.548 66.5127 21.476 66.2007 21.428C65.9127 21.38 65.5767 21.356 65.1927 21.356C64.5207 21.356 63.8127 21.608 63.0687 22.112C62.3487 22.592 61.7487 23.432 61.2687 24.632V35H55.9767ZM72.5466 41.984C72.0186 41.984 71.5506 41.948 71.1426 41.876C70.7586 41.804 70.3866 41.72 70.0266 41.624L70.9626 37.592C71.1306 37.616 71.3226 37.652 71.5386 37.7C71.7546 37.772 71.9586 37.808 72.1506 37.808C73.0386 37.808 73.7226 37.592 74.2026 37.16C74.6826 36.728 75.0426 36.164 75.2826 35.468L75.5346 34.532L68.6586 17.144H73.9866L76.5426 24.812C76.8066 25.628 77.0466 26.456 77.2626 27.296C77.4786 28.136 77.7066 29 77.9466 29.888H78.0906C78.2826 29.048 78.4746 28.208 78.6666 27.368C78.8826 26.504 79.0986 25.652 79.3146 24.812L81.4746 17.144H86.5506L80.3586 35.18C79.8066 36.668 79.1946 37.916 78.5226 38.924C77.8506 39.956 77.0346 40.724 76.0746 41.228C75.1386 41.732 73.9626 41.984 72.5466 41.984ZM89.34 35V9.764H94.488V24.236H94.632L100.284 17.144H106.044L99.78 24.488L106.512 35H100.788L96.756 28.052L94.488 30.608V35H89.34ZM109.063 35V9.764H114.355V15.956L114.103 19.16C114.775 18.56 115.555 18.008 116.443 17.504C117.355 16.976 118.411 16.712 119.611 16.712C121.555 16.712 122.959 17.36 123.823 18.656C124.711 19.928 125.155 21.68 125.155 23.912V35H119.863V24.596C119.863 23.3 119.683 22.412 119.323 21.932C118.987 21.452 118.435 21.212 117.667 21.212C116.995 21.212 116.419 21.368 115.939 21.68C115.459 21.968 114.931 22.388 114.355 22.94V35H109.063ZM131.609 41.984C131.081 41.984 130.613 41.948 130.205 41.876C129.821 41.804 129.449 41.72 129.089 41.624L130.025 37.592C130.193 37.616 130.385 37.652 130.601 37.7C130.817 37.772 131.021 37.808 131.213 37.808C132.101 37.808 132.785 37.592 133.265 37.16C133.745 36.728 134.105 36.164 134.345 35.468L134.597 34.532L127.721 17.144H133.049L135.605 24.812C135.869 25.628 136.109 26.456 136.325 27.296C136.541 28.136 136.769 29 137.009 29.888H137.153C137.345 29.048 137.537 28.208 137.729 27.368C137.945 26.504 138.161 25.652 138.377 24.812L140.537 17.144H145.613L139.421 35.18C138.869 36.668 138.257 37.916 137.585 38.924C136.913 39.956 136.097 40.724 135.137 41.228C134.201 41.732 133.025 41.984 131.609 41.984ZM153.659 35.432C152.483 35.432 151.271 35.204 150.023 34.748C148.799 34.292 147.731 33.692 146.819 32.948L149.195 29.636C150.011 30.236 150.791 30.704 151.535 31.04C152.303 31.352 153.059 31.508 153.803 31.508C154.595 31.508 155.171 31.376 155.531 31.112C155.891 30.824 156.071 30.452 156.071 29.996C156.071 29.588 155.891 29.252 155.531 28.988C155.195 28.724 154.751 28.484 154.199 28.268C153.647 28.028 153.059 27.788 152.435 27.548C151.715 27.26 150.995 26.9 150.275 26.468C149.579 26.036 148.991 25.484 148.511 24.812C148.031 24.116 147.791 23.276 147.791 22.292C147.791 20.636 148.415 19.292 149.663 18.26C150.935 17.228 152.591 16.712 154.631 16.712C155.999 16.712 157.199 16.952 158.231 17.432C159.287 17.888 160.187 18.404 160.931 18.98L158.555 22.148C157.931 21.668 157.307 21.296 156.683 21.032C156.059 20.768 155.435 20.636 154.811 20.636C153.443 20.636 152.759 21.104 152.759 22.04C152.759 22.616 153.095 23.06 153.767 23.372C154.463 23.66 155.267 23.972 156.179 24.308C156.947 24.572 157.691 24.92 158.411 25.352C159.155 25.76 159.767 26.312 160.247 27.008C160.751 27.68 161.003 28.568 161.003 29.672C161.003 31.28 160.379 32.648 159.131 33.776C157.883 34.88 156.059 35.432 153.659 35.432ZM170.536 35.432C168.328 35.432 166.744 34.796 165.784 33.524C164.848 32.252 164.38 30.584 164.38 28.52V21.284H161.932V17.36L164.668 17.144L165.28 12.392H169.672V17.144H173.956V21.284H169.672V28.448C169.672 29.456 169.876 30.188 170.284 30.644C170.716 31.076 171.28 31.292 171.976 31.292C172.264 31.292 172.552 31.256 172.84 31.184C173.152 31.112 173.428 31.028 173.668 30.932L174.496 34.784C174.04 34.928 173.476 35.072 172.804 35.216C172.156 35.36 171.4 35.432 170.536 35.432ZM184.477 35.432C182.965 35.432 181.537 35.072 180.193 34.352C178.873 33.608 177.805 32.54 176.989 31.148C176.173 29.732 175.765 28.04 175.765 26.072C175.765 24.08 176.173 22.388 176.989 20.996C177.805 19.604 178.873 18.548 180.193 17.828C181.537 17.084 182.965 16.712 184.477 16.712C185.989 16.712 187.405 17.084 188.725 17.828C190.045 18.548 191.113 19.604 191.929 20.996C192.745 22.388 193.153 24.08 193.153 26.072C193.153 28.04 192.745 29.732 191.929 31.148C191.113 32.54 190.045 33.608 188.725 34.352C187.405 35.072 185.989 35.432 184.477 35.432ZM184.477 31.148C185.557 31.148 186.373 30.692 186.925 29.78C187.477 28.844 187.753 27.608 187.753 26.072C187.753 24.512 187.477 23.276 186.925 22.364C186.373 21.452 185.557 20.996 184.477 20.996C183.373 20.996 182.545 21.452 181.993 22.364C181.465 23.276 181.201 24.512 181.201 26.072C181.201 27.608 181.465 28.844 181.993 29.78C182.545 30.692 183.373 31.148 184.477 31.148ZM196.778 35V9.764H201.926V24.236H202.07L207.722 17.144H213.482L207.218 24.488L213.95 35H208.226L204.194 28.052L201.926 30.608V35H196.778ZM219.701 35.432C218.789 35.432 218.021 35.12 217.397 34.496C216.797 33.848 216.497 33.056 216.497 32.12C216.497 31.16 216.797 30.368 217.397 29.744C218.021 29.096 218.789 28.772 219.701 28.772C220.613 28.772 221.369 29.096 221.969 29.744C222.593 30.368 222.905 31.16 222.905 32.12C222.905 33.056 222.593 33.848 221.969 34.496C221.369 35.12 220.613 35.432 219.701 35.432ZM233.806 42.596C232.414 42.596 231.154 42.44 230.026 42.128C228.898 41.816 227.998 41.324 227.326 40.652C226.654 39.98 226.318 39.116 226.318 38.06C226.318 36.62 227.17 35.42 228.874 34.46V34.316C228.418 34.004 228.022 33.608 227.686 33.128C227.374 32.648 227.218 32.036 227.218 31.292C227.218 30.644 227.41 30.02 227.794 29.42C228.178 28.82 228.658 28.328 229.234 27.944V27.8C228.61 27.368 228.046 26.744 227.542 25.928C227.062 25.112 226.822 24.188 226.822 23.156C226.822 21.716 227.17 20.528 227.866 19.592C228.562 18.632 229.474 17.912 230.602 17.432C231.73 16.952 232.93 16.712 234.202 16.712C235.258 16.712 236.182 16.856 236.974 17.144H243.49V20.996H240.646C240.814 21.26 240.946 21.596 241.042 22.004C241.162 22.412 241.222 22.856 241.222 23.336C241.222 24.704 240.91 25.832 240.286 26.72C239.662 27.608 238.822 28.268 237.766 28.7C236.71 29.132 235.522 29.348 234.202 29.348C233.506 29.348 232.786 29.228 232.042 28.988C231.61 29.348 231.394 29.792 231.394 30.32C231.394 30.776 231.598 31.112 232.006 31.328C232.414 31.544 233.11 31.652 234.094 31.652H236.974C239.182 31.652 240.862 32.012 242.014 32.732C243.19 33.428 243.778 34.58 243.778 36.188C243.778 37.412 243.37 38.504 242.554 39.464C241.738 40.448 240.586 41.216 239.098 41.768C237.61 42.32 235.846 42.596 233.806 42.596ZM234.202 26.144C234.898 26.144 235.474 25.892 235.93 25.388C236.41 24.884 236.65 24.14 236.65 23.156C236.65 22.22 236.41 21.512 235.93 21.032C235.474 20.528 234.898 20.276 234.202 20.276C233.506 20.276 232.918 20.516 232.438 20.996C231.982 21.476 231.754 22.196 231.754 23.156C231.754 24.14 231.982 24.884 232.438 25.388C232.918 25.892 233.506 26.144 234.202 26.144ZM234.634 39.284C235.834 39.284 236.818 39.068 237.586 38.636C238.354 38.204 238.738 37.688 238.738 37.088C238.738 36.536 238.498 36.164 238.018 35.972C237.562 35.78 236.89 35.684 236.002 35.684H234.166C233.566 35.684 233.062 35.66 232.654 35.612C232.27 35.588 231.934 35.54 231.646 35.468C230.998 36.044 230.674 36.632 230.674 37.232C230.674 37.904 231.034 38.408 231.754 38.744C232.498 39.104 233.458 39.284 234.634 39.284ZM253.699 35.432C252.187 35.432 250.759 35.072 249.415 34.352C248.095 33.608 247.027 32.54 246.211 31.148C245.395 29.732 244.987 28.04 244.987 26.072C244.987 24.08 245.395 22.388 246.211 20.996C247.027 19.604 248.095 18.548 249.415 17.828C250.759 17.084 252.187 16.712 253.699 16.712C255.211 16.712 256.627 17.084 257.947 17.828C259.267 18.548 260.335 19.604 261.151 20.996C261.967 22.388 262.375 24.08 262.375 26.072C262.375 28.04 261.967 29.732 261.151 31.148C260.335 32.54 259.267 33.608 257.947 34.352C256.627 35.072 255.211 35.432 253.699 35.432ZM253.699 31.148C254.779 31.148 255.595 30.692 256.147 29.78C256.699 28.844 256.975 27.608 256.975 26.072C256.975 24.512 256.699 23.276 256.147 22.364C255.595 21.452 254.779 20.996 253.699 20.996C252.595 20.996 251.767 21.452 251.215 22.364C250.687 23.276 250.423 24.512 250.423 26.072C250.423 27.608 250.687 28.844 251.215 29.78C251.767 30.692 252.595 31.148 253.699 31.148ZM269.823 35L263.811 17.144H269.139L271.443 25.568C271.683 26.456 271.911 27.368 272.127 28.304C272.367 29.216 272.607 30.14 272.847 31.076H272.991C273.207 30.14 273.423 29.216 273.639 28.304C273.879 27.368 274.119 26.456 274.359 25.568L276.699 17.144H281.775L275.943 35H269.823ZM285.478 35.432C284.566 35.432 283.798 35.12 283.174 34.496C282.574 33.848 282.274 33.056 282.274 32.12C282.274 31.16 282.574 30.368 283.174 29.744C283.798 29.096 284.566 28.772 285.478 28.772C286.39 28.772 287.146 29.096 287.746 29.744C288.37 30.368 288.682 31.16 288.682 32.12C288.682 33.056 288.37 33.848 287.746 34.496C287.146 35.12 286.39 35.432 285.478 35.432ZM298.575 35.432C296.631 35.432 295.215 34.796 294.327 33.524C293.463 32.228 293.031 30.464 293.031 28.232V17.144H298.323V27.548C298.323 28.82 298.503 29.708 298.863 30.212C299.223 30.692 299.787 30.932 300.555 30.932C301.227 30.932 301.791 30.776 302.247 30.464C302.703 30.152 303.195 29.648 303.723 28.952V17.144H309.015V35H304.695L304.299 32.516H304.191C303.447 33.404 302.631 34.112 301.743 34.64C300.855 35.168 299.799 35.432 298.575 35.432ZM318.172 35.432C316.54 35.432 315.244 34.916 314.284 33.884C313.324 32.828 312.844 31.544 312.844 30.032C312.844 28.16 313.636 26.696 315.22 25.64C316.804 24.584 319.36 23.876 322.888 23.516C322.84 22.724 322.6 22.1 322.168 21.644C321.76 21.164 321.064 20.924 320.08 20.924C319.336 20.924 318.58 21.068 317.812 21.356C317.044 21.644 316.228 22.04 315.364 22.544L313.456 19.052C314.584 18.356 315.784 17.792 317.056 17.36C318.352 16.928 319.696 16.712 321.088 16.712C323.368 16.712 325.12 17.372 326.344 18.692C327.568 20.012 328.18 22.04 328.18 24.776V35H323.86L323.5 33.164H323.356C322.612 33.836 321.808 34.388 320.944 34.82C320.104 35.228 319.18 35.432 318.172 35.432ZM319.972 31.328C320.572 31.328 321.088 31.196 321.52 30.932C321.976 30.644 322.432 30.272 322.888 29.816V26.684C321.016 26.924 319.72 27.308 319 27.836C318.28 28.34 317.92 28.94 317.92 29.636C317.92 30.212 318.1 30.644 318.46 30.932C318.844 31.196 319.348 31.328 319.972 31.328Z" fill="white"/>
<path d="M38.352 61.968C38.096 63.296 37.824 64.392 37.536 65.256C37.264 66.12 36.952 66.8 36.6 67.296H43.92V54.936H39.528C39.368 55.832 39.232 56.648 39.12 57.384C39.008 58.104 38.888 58.824 38.76 59.544C38.648 60.264 38.512 61.072 38.352 61.968ZM35.592 69V73.512H33.84L33.624 68.496V67.296H34.344C34.568 67.2 34.792 66.976 35.016 66.624C35.256 66.272 35.504 65.704 35.76 64.92C36.016 64.12 36.272 63.024 36.528 61.632C36.72 60.592 36.888 59.656 37.032 58.824C37.176 57.976 37.32 57.12 37.464 56.256C37.624 55.376 37.792 54.376 37.968 53.256H45.936V67.296H47.688V68.496L47.472 73.512H45.72V69H35.592ZM55.1648 69.288C54.1248 69.288 53.1808 69.048 52.3328 68.568C51.4848 68.072 50.8128 67.368 50.3168 66.456C49.8208 65.544 49.5728 64.456 49.5728 63.192C49.5728 61.912 49.8208 60.816 50.3168 59.904C50.8288 58.992 51.4848 58.288 52.2848 57.792C53.0848 57.296 53.9248 57.048 54.8047 57.048C56.2928 57.048 57.4368 57.544 58.2368 58.536C59.0528 59.528 59.4608 60.856 59.4608 62.52C59.4608 62.728 59.4528 62.936 59.4368 63.144C59.4368 63.336 59.4208 63.504 59.3888 63.648H51.5168C51.5968 64.88 51.9808 65.864 52.6688 66.6C53.3728 67.336 54.2848 67.704 55.4048 67.704C55.9648 67.704 56.4768 67.624 56.9408 67.464C57.4208 67.288 57.8768 67.064 58.3088 66.792L59.0048 68.088C58.5088 68.408 57.9408 68.688 57.3008 68.928C56.6768 69.168 55.9648 69.288 55.1648 69.288ZM51.4928 62.232H57.7328C57.7328 61.048 57.4768 60.152 56.9648 59.544C56.4688 58.92 55.7648 58.608 54.8528 58.608C54.0368 58.608 53.3008 58.928 52.6448 59.568C52.0048 60.192 51.6208 61.08 51.4928 62.232ZM62.343 73.92V57.336H63.975L64.143 58.68H64.215C64.743 58.232 65.319 57.848 65.943 57.528C66.583 57.208 67.247 57.048 67.935 57.048C69.439 57.048 70.583 57.592 71.367 58.68C72.151 59.752 72.543 61.192 72.543 63C72.543 64.312 72.303 65.44 71.823 66.384C71.359 67.328 70.743 68.048 69.975 68.544C69.223 69.04 68.399 69.288 67.503 69.288C66.959 69.288 66.415 69.168 65.871 68.928C65.343 68.688 64.807 68.36 64.263 67.944L64.311 69.984V73.92H62.343ZM67.167 67.632C68.127 67.632 68.919 67.224 69.543 66.408C70.183 65.576 70.503 64.44 70.503 63C70.503 61.72 70.263 60.688 69.783 59.904C69.319 59.104 68.535 58.704 67.431 58.704C66.935 58.704 66.431 58.84 65.919 59.112C65.423 59.384 64.887 59.776 64.311 60.288V66.408C64.839 66.856 65.351 67.176 65.847 67.368C66.343 67.544 66.783 67.632 67.167 67.632ZM73.9995 69L77.6715 62.88L76.7355 60.552C76.4795 59.88 76.2155 59.448 75.9435 59.256C75.6715 59.064 75.3755 58.968 75.0555 58.968C74.8955 58.968 74.7675 58.984 74.6715 59.016L74.3115 57.168C74.5195 57.088 74.7515 57.048 75.0075 57.048C75.6475 57.048 76.2155 57.216 76.7115 57.552C77.2235 57.888 77.6795 58.552 78.0795 59.544L79.1355 62.136H80.9835V57.336H82.7355V62.136H84.5835L85.6395 59.544C86.0555 58.552 86.5115 57.888 87.0075 57.552C87.5035 57.216 88.0715 57.048 88.7115 57.048C88.9675 57.048 89.1915 57.088 89.3835 57.168L89.0475 59.016C88.9515 58.984 88.8235 58.968 88.6635 58.968C88.3595 58.968 88.0635 59.064 87.7755 59.256C87.5035 59.448 87.2315 59.88 86.9595 60.552L86.0475 62.88L89.7195 69H87.5835L84.6555 63.744H82.7355V69H80.9835V63.744H79.0635L76.1355 69H73.9995ZM94.4451 69.288C93.4691 69.288 92.6531 69 91.9971 68.424C91.3571 67.832 91.0371 67.016 91.0371 65.976C91.0371 64.696 91.6051 63.72 92.7411 63.048C93.8931 62.36 95.7091 61.88 98.1891 61.608C98.1891 61.112 98.1171 60.64 97.9731 60.192C97.8451 59.744 97.6051 59.384 97.2531 59.112C96.9171 58.824 96.4291 58.68 95.7891 58.68C95.1171 58.68 94.4851 58.808 93.8931 59.064C93.3011 59.32 92.7731 59.608 92.3091 59.928L91.5411 58.56C92.0851 58.208 92.7491 57.872 93.5331 57.552C94.3331 57.216 95.1971 57.048 96.1251 57.048C97.5491 57.048 98.5811 57.488 99.2211 58.368C99.8611 59.232 100.181 60.392 100.181 61.848V69H98.5491L98.3811 67.608H98.3091C97.7651 68.056 97.1651 68.448 96.5091 68.784C95.8691 69.12 95.1811 69.288 94.4451 69.288ZM95.0211 67.704C95.5811 67.704 96.1091 67.568 96.6051 67.296C97.1011 67.024 97.6291 66.64 98.1891 66.144V62.904C96.2531 63.144 94.8931 63.504 94.1091 63.984C93.3411 64.464 92.9571 65.08 92.9571 65.832C92.9571 66.488 93.1571 66.968 93.5571 67.272C93.9571 67.56 94.4451 67.704 95.0211 67.704ZM103.851 69V57.336H108.339C109.619 57.336 110.651 57.568 111.435 58.032C112.235 58.48 112.635 59.232 112.635 60.288C112.635 60.928 112.459 61.464 112.107 61.896C111.771 62.312 111.299 62.608 110.691 62.784V62.856C111.347 63.016 111.915 63.312 112.395 63.744C112.891 64.176 113.139 64.816 113.139 65.664C113.139 66.816 112.707 67.664 111.843 68.208C110.979 68.736 109.875 69 108.531 69H103.851ZM105.795 62.232H108.003C108.979 62.232 109.675 62.08 110.091 61.776C110.507 61.456 110.715 61.024 110.715 60.48C110.715 59.936 110.507 59.512 110.091 59.208C109.691 58.904 109.043 58.752 108.147 58.752H105.795V62.232ZM105.795 67.584H108.315C109.275 67.584 109.987 67.408 110.451 67.056C110.931 66.688 111.171 66.184 111.171 65.544C111.171 64.952 110.923 64.488 110.427 64.152C109.931 63.816 109.187 63.648 108.195 63.648H105.795V67.584ZM116.038 69V57.336H118.006V62.064H123.622V57.336H125.59V69H123.622V63.816H118.006V69H116.038ZM129.515 69V57.336H131.483V69H129.515ZM130.523 54.936C130.139 54.936 129.819 54.824 129.563 54.6C129.323 54.36 129.203 54.04 129.203 53.64C129.203 53.256 129.323 52.944 129.563 52.704C129.819 52.464 130.139 52.344 130.523 52.344C130.907 52.344 131.219 52.464 131.459 52.704C131.715 52.944 131.843 53.256 131.843 53.64C131.843 54.04 131.715 54.36 131.459 54.6C131.219 54.824 130.907 54.936 130.523 54.936ZM144.834 69.288C143.81 69.288 142.882 69.048 142.05 68.568C141.218 68.088 140.562 67.392 140.082 66.48C139.602 65.568 139.362 64.472 139.362 63.192C139.362 61.88 139.618 60.768 140.13 59.856C140.658 58.944 141.346 58.248 142.194 57.768C143.058 57.288 143.986 57.048 144.978 57.048C145.746 57.048 146.402 57.184 146.946 57.456C147.506 57.728 147.986 58.048 148.386 58.416L147.378 59.712C147.042 59.408 146.682 59.16 146.298 58.968C145.93 58.776 145.514 58.68 145.05 58.68C144.346 58.68 143.714 58.872 143.154 59.256C142.61 59.624 142.178 60.152 141.858 60.84C141.554 61.512 141.402 62.296 141.402 63.192C141.402 64.52 141.73 65.6 142.386 66.432C143.058 67.248 143.93 67.656 145.002 67.656C145.546 67.656 146.05 67.544 146.514 67.32C146.978 67.08 147.386 66.8 147.738 66.48L148.602 67.8C148.074 68.264 147.49 68.632 146.85 68.904C146.21 69.16 145.538 69.288 144.834 69.288ZM153.625 69.288C152.649 69.288 151.833 69 151.177 68.424C150.537 67.832 150.217 67.016 150.217 65.976C150.217 64.696 150.785 63.72 151.921 63.048C153.073 62.36 154.889 61.88 157.369 61.608C157.369 61.112 157.297 60.64 157.153 60.192C157.025 59.744 156.785 59.384 156.433 59.112C156.097 58.824 155.609 58.68 154.969 58.68C154.297 58.68 153.665 58.808 153.073 59.064C152.481 59.32 151.953 59.608 151.489 59.928L150.721 58.56C151.265 58.208 151.929 57.872 152.713 57.552C153.513 57.216 154.377 57.048 155.305 57.048C156.729 57.048 157.761 57.488 158.401 58.368C159.041 59.232 159.361 60.392 159.361 61.848V69H157.729L157.561 67.608H157.489C156.945 68.056 156.345 68.448 155.689 68.784C155.049 69.12 154.361 69.288 153.625 69.288ZM154.201 67.704C154.761 67.704 155.289 67.568 155.785 67.296C156.281 67.024 156.809 66.64 157.369 66.144V62.904C155.433 63.144 154.073 63.504 153.289 63.984C152.521 64.464 152.137 65.08 152.137 65.832C152.137 66.488 152.337 66.968 152.737 67.272C153.137 67.56 153.625 67.704 154.201 67.704ZM163.031 69V57.336H164.951V62.184C164.951 62.808 164.927 63.496 164.879 64.248C164.847 64.984 164.807 65.728 164.759 66.48H164.855C165.079 66.112 165.335 65.696 165.623 65.232C165.927 64.752 166.183 64.336 166.391 63.984L170.807 57.336H172.655V69H170.735V64.152C170.735 63.528 170.751 62.84 170.783 62.088C170.831 61.336 170.879 60.584 170.927 59.832H170.831C170.623 60.184 170.367 60.6 170.063 61.08C169.759 61.56 169.503 61.976 169.295 62.328L164.855 69H163.031ZM167.903 55.248C167.007 55.248 166.287 55.072 165.743 54.72C165.215 54.368 164.823 53.912 164.567 53.352C164.311 52.792 164.167 52.2 164.135 51.576H165.767C165.799 52.264 165.967 52.856 166.271 53.352C166.575 53.848 167.119 54.096 167.903 54.096C168.703 54.096 169.255 53.848 169.559 53.352C169.863 52.856 170.023 52.264 170.039 51.576H171.671C171.639 52.2 171.495 52.792 171.239 53.352C170.983 53.912 170.583 54.368 170.039 54.72C169.511 55.072 168.799 55.248 167.903 55.248ZM179.169 69V58.944H175.257V57.336H185.049V58.944H181.137V69H179.169ZM187.64 69V57.336H189.56V62.184C189.56 62.808 189.536 63.496 189.488 64.248C189.456 64.984 189.416 65.728 189.368 66.48H189.464C189.688 66.112 189.944 65.696 190.232 65.232C190.536 64.752 190.792 64.336 191 63.984L195.416 57.336H197.264V69H195.344V64.152C195.344 63.528 195.36 62.84 195.392 62.088C195.44 61.336 195.488 60.584 195.536 59.832H195.44C195.232 60.184 194.976 60.6 194.672 61.08C194.368 61.56 194.112 61.976 193.904 62.328L189.464 69H187.64ZM207.311 69.288C206.959 69.288 206.663 69.264 206.423 69.216C206.199 69.184 205.975 69.128 205.751 69.048L206.159 67.248C206.287 67.296 206.431 67.336 206.591 67.368C206.751 67.4 206.943 67.416 207.167 67.416C207.679 67.416 208.095 67.32 208.415 67.128C208.735 66.92 208.999 66.592 209.207 66.144L209.543 65.304L204.167 53.256H206.303L209.231 60.264L210.431 63.36H210.527L211.631 60.264L214.343 53.256H216.383L211.223 66.144C210.823 67.12 210.319 67.888 209.711 68.448C209.103 69.008 208.303 69.288 207.311 69.288ZM217.616 69V57.336H219.584V62.136H221.84L222.992 59.544C223.312 58.84 223.624 58.312 223.928 57.96C224.232 57.592 224.56 57.352 224.912 57.24C225.264 57.112 225.648 57.048 226.064 57.048C226.32 57.048 226.544 57.088 226.736 57.168L226.4 59.016C226.304 58.984 226.176 58.968 226.016 58.968C225.712 58.968 225.432 59.056 225.176 59.232C224.92 59.408 224.632 59.848 224.312 60.552L223.328 62.856L227.288 69H225.128L221.888 63.744H219.584V69H217.616ZM229.57 73.92V57.336H231.202L231.37 58.68H231.442C231.97 58.232 232.546 57.848 233.17 57.528C233.81 57.208 234.474 57.048 235.162 57.048C236.666 57.048 237.81 57.592 238.594 58.68C239.378 59.752 239.77 61.192 239.77 63C239.77 64.312 239.53 65.44 239.05 66.384C238.586 67.328 237.97 68.048 237.202 68.544C236.45 69.04 235.626 69.288 234.73 69.288C234.186 69.288 233.642 69.168 233.098 68.928C232.57 68.688 232.034 68.36 231.49 67.944L231.538 69.984V73.92H229.57ZM234.394 67.632C235.354 67.632 236.146 67.224 236.77 66.408C237.41 65.576 237.73 64.44 237.73 63C237.73 61.72 237.49 60.688 237.01 59.904C236.546 59.104 235.762 58.704 234.658 58.704C234.162 58.704 233.658 58.84 233.146 59.112C232.65 59.384 232.114 59.776 231.538 60.288V66.408C232.066 66.856 232.578 67.176 233.074 67.368C233.57 67.544 234.01 67.632 234.394 67.632ZM245.242 69.288C244.266 69.288 243.45 69 242.794 68.424C242.154 67.832 241.834 67.016 241.834 65.976C241.834 64.696 242.402 63.72 243.538 63.048C244.69 62.36 246.506 61.88 248.986 61.608C248.986 61.112 248.914 60.64 248.77 60.192C248.642 59.744 248.402 59.384 248.05 59.112C247.714 58.824 247.226 58.68 246.586 58.68C245.914 58.68 245.282 58.808 244.69 59.064C244.098 59.32 243.57 59.608 243.106 59.928L242.338 58.56C242.882 58.208 243.546 57.872 244.33 57.552C245.13 57.216 245.994 57.048 246.922 57.048C248.346 57.048 249.378 57.488 250.018 58.368C250.658 59.232 250.978 60.392 250.978 61.848V69H249.346L249.178 67.608H249.106C248.562 68.056 247.962 68.448 247.306 68.784C246.666 69.12 245.978 69.288 245.242 69.288ZM245.818 67.704C246.378 67.704 246.906 67.568 247.402 67.296C247.898 67.024 248.426 66.64 248.986 66.144V62.904C247.05 63.144 245.69 63.504 244.906 63.984C244.138 64.464 243.754 65.08 243.754 65.832C243.754 66.488 243.954 66.968 244.354 67.272C244.754 67.56 245.242 67.704 245.818 67.704ZM254.648 69V57.336H256.616V69H254.648ZM253.352 54.912C253 54.912 252.712 54.8 252.488 54.576C252.264 54.336 252.152 54.048 252.152 53.712C252.152 53.376 252.264 53.096 252.488 52.872C252.712 52.632 253 52.512 253.352 52.512C253.688 52.512 253.968 52.632 254.192 52.872C254.416 53.096 254.528 53.376 254.528 53.712C254.528 54.048 254.416 54.336 254.192 54.576C253.968 54.8 253.688 54.912 253.352 54.912ZM257.96 54.912C257.624 54.912 257.344 54.8 257.12 54.576C256.896 54.336 256.784 54.048 256.784 53.712C256.784 53.376 256.896 53.096 257.12 52.872C257.344 52.632 257.624 52.512 257.96 52.512C258.312 52.512 258.6 52.632 258.824 52.872C259.048 53.096 259.16 53.376 259.16 53.712C259.16 54.048 259.048 54.336 258.824 54.576C258.6 54.8 258.312 54.912 257.96 54.912ZM260.554 69V57.336H262.522V62.064H268.138V57.336H270.106V69H268.138V63.816H262.522V69H260.554ZM274.031 69V57.336H275.951V62.184C275.951 62.808 275.927 63.496 275.879 64.248C275.847 64.984 275.807 65.728 275.759 66.48H275.855C276.079 66.112 276.335 65.696 276.623 65.232C276.927 64.752 277.183 64.336 277.391 63.984L281.807 57.336H283.655V69H281.735V64.152C281.735 63.528 281.751 62.84 281.783 62.088C281.831 61.336 281.879 60.584 281.927 59.832H281.831C281.623 60.184 281.367 60.6 281.063 61.08C280.759 61.56 280.503 61.976 280.295 62.328L275.855 69H274.031Z" fill="#F9F9F9" fill-opacity="0.5"/>
</svg>
