<?xml version="1.0" standalone="no"?>
<!DOCTYPE svg PUBLIC "-//W3C//DTD SVG 20010904//EN"
 "http://www.w3.org/TR/2001/REC-SVG-20010904/DTD/svg10.dtd">
<svg version="1.0" xmlns="http://www.w3.org/2000/svg"
 width="174.000000pt" height="174.000000pt" viewBox="0 0 174.000000 174.000000"
 preserveAspectRatio="xMidYMid meet">
<metadata>
Created by potrace 1.14, written by Peter Selinger 2001-2017
</metadata>
<g transform="translate(0.000000,174.000000) scale(0.100000,-0.100000)"
fill="#000000" stroke="none">
<path d="M550 1675 l0 -55 -85 0 c-47 0 -85 -3 -85 -7 0 -5 8 -21 18 -38 10
-16 30 -50 44 -75 14 -25 80 -139 147 -254 66 -115 120 -211 118 -212 -1 -2
-131 71 -287 161 -157 91 -288 165 -292 165 -5 0 -8 -39 -8 -86 l0 -86 -55 4
-55 3 0 -325 0 -326 55 3 55 2 0 -85 c0 -46 2 -84 5 -84 9 0 539 303 563 323
37 29 17 -10 -177 -343 -17 -30 -36 -62 -41 -70 -22 -36 -90 -160 -90 -165 0
-3 38 -5 85 -5 l85 0 0 -55 0 -55 320 0 320 0 1 48 c1 26 1 50 0 54 0 5 38 8
85 8 74 0 85 2 80 16 -3 8 -73 131 -154 272 -82 141 -155 267 -161 280 l-12
23 31 -16 c18 -9 69 -38 114 -65 44 -26 97 -57 116 -68 19 -11 95 -54 168 -96
73 -42 140 -80 148 -83 13 -5 15 4 14 53 -3 121 -5 116 43 114 23 -1 48 -1 55
-1 9 1 12 72 12 321 0 357 8 324 -72 320 -42 -2 -42 -4 -38 119 1 46 -1 53
-15 47 -9 -3 -116 -64 -238 -134 -365 -211 -341 -199 -327 -171 15 27 128 224
236 411 41 70 77 134 80 142 5 14 -6 16 -81 16 l-87 0 2 33 c1 17 2 42 1 55
l-1 22 -320 0 -320 0 0 -55z m264 -112 c0 -29 3 -53 8 -54 4 -1 24 -1 43 -1
62 0 62 0 62 45 1 23 1 47 2 54 1 9 24 12 76 12 l74 0 3 -57 3 -57 43 2 c23 1
42 1 42 -1 0 -4 -23 -44 -140 -247 l-72 -126 -88 1 -88 1 -103 178 c-57 98
-105 182 -107 186 -1 5 8 8 20 8 71 1 68 -1 68 58 l0 55 77 -3 78 -2 -1 -52z
m-417 -485 c87 -50 169 -97 183 -105 24 -12 25 -17 25 -102 l1 -89 -96 -55
c-52 -30 -135 -78 -183 -106 -48 -28 -89 -51 -91 -51 -2 0 -2 15 -1 33 2 52
-3 57 -60 57 l-53 0 -1 75 c0 53 3 75 12 76 6 1 31 1 55 1 23 0 42 3 43 7 1 3
2 29 2 56 l2 50 -45 1 c-25 1 -51 2 -58 3 -8 1 -12 23 -11 76 l1 75 54 0 c58
0 57 -1 56 63 0 15 1 27 3 27 2 0 75 -41 162 -92z m1111 65 c0 -65 -2 -63 56
-63 l54 0 0 -75 c0 -70 -2 -75 -21 -76 -33 -2 -71 -5 -82 -7 -8 -2 -11 -48 -6
-103 1 -4 26 -6 56 -5 l55 2 -2 -78 -2 -78 -53 0 c-57 0 -56 0 -55 -62 0 -16
-1 -28 -3 -28 -7 0 -341 194 -356 207 -13 11 -16 31 -15 93 1 44 6 84 12 90
12 12 345 208 355 209 4 1 6 -11 7 -26z m-487 -133 c2 -43 -3 -285 -6 -288 -2
-2 -69 -4 -149 -5 l-146 -2 -1 25 c-1 27 0 248 0 267 1 16 17 18 168 18 111 0
133 -2 134 -15z m-58 -420 c12 -13 207 -347 207 -354 0 -2 -12 -3 -27 -4 -65
0 -63 2 -63 -57 l0 -55 -75 0 c-83 0 -75 -8 -79 79 -1 33 -2 34 -49 35 -61 1
-62 1 -66 -86 -1 -26 -2 -27 -76 -27 l-75 0 0 54 c0 58 1 58 -57 57 -18 0 -33
1 -33 3 0 7 194 341 206 356 19 22 167 21 187 -1z"/>
</g>
</svg>
