<?xml version="1.0" encoding="UTF-8"?>
<!DOCTYPE svg PUBLIC "-//W3C//DTD SVG 1.1//EN" "http://www.w3.org/Graphics/SVG/1.1/DTD/svg11.dtd">
<!-- Creator: CorelDRAW (Evaluation Version) -->
<svg xmlns="http://www.w3.org/2000/svg" xml:space="preserve" width="186.248mm" height="50mm" version="1.1" style="shape-rendering:geometricPrecision; text-rendering:geometricPrecision; image-rendering:optimizeQuality; fill-rule:evenodd; clip-rule:evenodd"
viewBox="0 0 18624.8 5000"
 xmlns:xlink="http://www.w3.org/1999/xlink"
 xmlns:xodm="http://www.corel.com/coreldraw/odm/2003">
 <defs>
  <style type="text/css">
   <![CDATA[
    .fil0 {fill:#FDC300}
    .fil1 {fill:#1D1D1B;fill-rule:nonzero}
   ]]>
  </style>
 </defs>
 <g id="Layer_x0020_1">
  <metadata id="CorelCorpID_0Corel-Layer"/>
  <path id="Vector" class="fil0" d="M2145.62 3268.23l491.45 0 600 1083.81 -257.84 0 0 324.25 -432.3 0 0 -324.25 -311.17 0 0 324.25 -432.3 0 0 -324.25 -257.84 0 600 -1083.81zm981.92 -511.15l0 -512.12 1040.04 -625.25 0 268.69 311.13 0 0 450.52 -311.13 0 0 324.24 311.13 0 0 450.48 -311.13 0 0 268.69 -1040.04 -625.25zm-490.47 -1023.23l-491.45 0 -600 -1083.81 257.84 0 0 -325.27 432.3 0 0 324.25 311.17 0 0 -324.25 432.3 0 0 324.25 257.84 0 -600 1083.81 0 1.02zm-981.92 511.11l0 512.12 -1040.05 625.25 0 -268.69 -311.13 0 0 -450.48 311.13 0 0 -324.24 -311.13 0 0 -450.52 311.13 0 0 -268.69 1040.05 625.25zm312.11 -186.86l848.16 0 0 884.86 -849.1 0 0 -884.86 0.94 0zm0 884.86l-959.58 1733.33 485.63 0 0 324.24 1798.97 0 0 -324.24 485.63 0 -959.58 -1732.35 1662.31 1000.03 0 -506.08 311.17 0 0 -1874.72 -311.17 0 0 -506.08 -1662.31 1000.03 957.66 -1732.35 -485.63 0 0 -324.24 -1798.03 0 0 324.24 -485.63 0 959.62 1732.35 -1662.35 -1000.03 0 506.08 -311.13 0 0 1874.72 311.13 0 0 506.08 1662.35 -1000.03 0.94 -0.98z"/>
  <path id="Vector_2" class="fil1" d="M17383.76 2394.44l437.22 0 0 1044.43 359.58 0 0 -1044.43 437.1 0 0 -321.22 -1233.9 0 0 321.22zm-1168.96 361.62c0,-257.57 138.59,-402.02 320.88,-402.02 194.79,0 334.41,144.45 334.41,402.02 0,257.58 -138.6,402.03 -334.41,402.03 -182.29,0 -320.88,-144.45 -320.88,-402.03zm-373.12 0c0,442.43 269.41,723.25 603.82,723.25 144.49,0 241.39,-53.55 311.16,-107.11 38.71,-32.31 71.74,-66.63 99.82,-107.04l12.59 0 0 173.71 359.62 0 0 -1365.65 -359.62 0 0 173.74 -12.59 0c-28.08,-40.4 -61.98,-74.76 -99.82,-107.07 -69.77,-53.52 -166.67,-107.08 -311.16,-107.08 -334.41,0 -603.82,280.82 -603.82,723.25zm-2724.69 0c0,-241.39 154.09,-402.02 347,-402.02 192.9,0 346.99,160.63 346.99,402.02 0,241.4 -154.09,402.03 -346.99,402.03 -192.91,0 -347,-160.63 -347,-402.03zm-372.21 0c0,402.03 305.31,723.25 719.21,723.25 413.89,0 719.2,-321.22 719.2,-723.25 0,-402.02 -311.2,-723.25 -719.2,-723.25 -408.12,0 -719.21,321.23 -719.21,723.25zm-1169.99 0c0,-257.57 138.6,-402.02 334.42,-402.02 182.28,0 321.78,144.45 321.78,402.02 0,257.58 -138.59,402.03 -321.78,402.03 -195.82,0 -334.42,-144.45 -334.42,-402.03zm-359.58 1191.91l359.58 0 0 -682.81 12.59 0c28.12,40.41 62.1,74.73 100.8,107.04 68.83,53.56 166.71,107.11 311.21,107.11 334.41,0 603.81,-280.82 603.81,-723.25 0,-442.43 -269.4,-723.25 -603.81,-723.25 -144.5,0 -241.4,53.56 -311.21,107.08 -38.7,32.31 -71.7,66.67 -100.8,107.07l-12.59 0 0 -173.74 -359.58 0 0 1874.75zm-2788.64 -1191.91c0,-241.39 154.09,-402.02 347,-402.02 192.87,0 346.99,160.63 346.99,402.02 0,241.4 -154.12,402.03 -346.99,402.03 -192.91,0 -347,-160.63 -347,-402.03zm-373.19 0c0,402.03 306.29,723.25 720.19,723.25 413.89,0 719.2,-321.22 719.2,-723.25 0,-402.02 -311.13,-723.25 -719.2,-723.25 -408.08,0 -720.19,321.23 -720.19,723.25zm-1464.6 308.07l283.01 -1125.24 244.27 0 283.05 1125.24 -809.35 0 -0.98 0zm3431.31 -254.55c0,-204.02 126.01,-334.33 308.22,-334.33 182.17,0 308.18,131.33 308.18,334.33 0,214.15 -126.01,348.51 -308.18,348.51 -182.21,0 -308.22,-134.36 -308.22,-348.51zm-372.24 -147.48c0,506.08 298.58,817.21 681.44,817.21 411.03,0 681.41,-294.95 681.41,-669.73 0,-374.74 -254.89,-629.25 -591.3,-629.25 -143.4,0 -241.29,48.45 -306.3,93.92 -38.7,29.29 -69.8,58.58 -92.1,93.92l-12.59 0 0 -481.81 886.9 0 0 -321.22 -1246.48 0 0 1097.98 -0.98 -1.02zm5063.64 147.48c0,-204.02 126.01,-334.33 308.18,-334.33 182.21,0 308.22,131.33 308.22,334.33 0,214.15 -126.01,348.51 -308.22,348.51 -182.17,0 -308.18,-134.36 -308.18,-348.51zm-372.2 -147.48c0,506.08 297.48,817.21 681.4,817.21 410.91,0 681.38,-294.95 681.38,-669.73 0,-374.74 -254.89,-629.25 -591.27,-629.25 -143.4,0 -241.32,48.45 -306.33,93.92 -38.78,29.29 -68.79,58.58 -92.07,93.92l-12.62 0 0 -481.81 886.9 0 0 -321.22 -1246.49 0 0 1097.98 -0.9 -1.02zm-8327.23 1111.14l372.21 0 0 -334.37 1221.31 0 0 334.37 373.15 0 0 -710.13 -205.49 0 -372.2 -1499.98 -809.35 0 -372.21 1499.98 -205.49 0 0 710.13 -1.93 0z"/>
 </g>
</svg>
