<svg viewBox="0 0 1439 436" fill="none" xmlns="http://www.w3.org/2000/svg">

    <path d="M1440 138.465L1440 513H2V224.607H58.2123V192.175L163.798 180.131L185.948 192.175V226.334L224.355 240.453V284.507H240.347V233.243L382.161 226.334L469.9 262.48V308.184L546.256 305.377L622.612 324.036V291.104L775.323 285.491V222.448L899.716 211.083L961.913 205.4L966.588 210.442L976.483 208.242L991.054 211.083L1005.9 206.714L1008.56 201.139L1024.11 199.718L1054.55 213.296V285.491L1139.46 270.024V157.61L1145.02 153.552L1153.29 133.335L1166.33 138.465L1171.16 149.244L1185.49 141.29H1189.39L1199.82 133.335L1198.09 123.679L1196.35 120.964L1198.09 117.946L1202.87 107.076V90.1742L1216.79 78.418L1227.93 66.016L1253 58.7592L1303.12 44.2456L1403.38 15.2184L1440 6L1440 138.465Z"
          fill="url(#paint0_linear_1250_978)" fill-opacity="0.31"/>
    <path d="M229.869 362.113V341.935H280.143V256.982H302.551V238.093H319.726V220.71H326.252V212.389H334.904V206.529H343.192V212.385H348.234V204.466H351.106V212.385H356.153V220.71H362.459V210.495H365.7V220.71H369.2V256.972H383.928V362.104H395.797V271.071H395.97L403.152 264.209V248.967L407.806 244.521V232.485L412.393 228.103V223.697L423.199 213.391V191.616H423.855V189.947H424.655V188.753H425.22V184.178H426.177V188.753H426.833V189.947H427.575V191.616H428.203V213.391L439.038 223.752V228.158L443.63 232.54V244.576L448.279 249.022V264.264L455.461 271.126H455.284V320.073H488.091V168.671H499.438V164.023H522.143V158.341H533.089V144.398H538.356V158.341H544.029V164.023H553.49V150.08H560.519V164.023H588.63V168.671H599.436V256.982H622.964V167.252H631.97V157.326H641.968V152.092H668.216V157.317H674.196V167.243H692.213V210.495H701.2V181.324H705.002V168.671H708.191V181.324H711.499V177.971H717.245V174.183H720.041V177.971H728.415V181.324H729.852V168.671H734.161V181.324H738.872V210.505H747.064V362.113H770.832V115.309L806.948 66H925.212L925.164 66.0777H925.212V362.113H947.859V263.519H940.677V258.761H947.859V251.634H940.677V246.881H947.859V239.749H940.677V234.996H947.859V227.865H940.677V223.112H947.859V215.985H940.677V211.232H947.859V204.1H940.677V199.347H947.859V192.216H940.677V187.463H947.859V180.336H940.677V175.578H947.859V154.782H952.57V122.5H955.611V119.613H961.835V113.012H966.115V119.613H969.156V122.518H973.58V151.832H979.661V144.682H994.168V151.813H999.56V144.682H1002.32V133.593H1010.79V144.682H1017.43V154.782H1027.79V130.821H1036.89V154.782H1056.8V175.578H1061.77V180.336H1056.8V187.463H1061.77V192.216H1056.8V199.347H1061.77V204.1H1056.8V211.232H1061.77V215.985H1056.8V223.112H1061.77V227.865H1056.8V234.996H1061.77V239.749H1056.8V246.881H1061.77V251.634H1056.8V258.761H1061.77V263.519H1056.8V305.572H1097.27V232.046H1109.66V224.965H1126.96V198.108H1132.91V218.766H1157.23V205.34H1169.13V198.108H1176.96V184.164H1181.02V198.108H1184.8V205.34H1204.8V232.046H1212.38V362.113H1223.38V203.885C1223.38 201.799 1223.56 199.716 1223.93 197.659C1227.97 194.285 1232.43 191.408 1237.22 189.096L1237.32 169.251L1246 166.283H1248.64L1248.69 156.123L1253.35 154.526L1275.17 154.622L1275.11 166.402L1286.6 166.456L1286.49 188.414C1291.32 190.918 1295.81 193.991 1299.84 197.563L1299.78 197.604L1299.84 197.559C1300.22 199.636 1300.41 201.74 1300.41 203.849V362.077H1320.27V203.885C1320.27 201.777 1320.46 199.673 1320.83 197.595L1320.89 197.641L1320.84 197.6C1324.87 194.027 1329.35 190.953 1334.19 188.451L1334.08 166.493L1345.57 166.438L1345.51 154.659L1367.33 154.563L1371.99 156.159L1372.04 166.319H1374.68L1383.36 169.288L1383.46 189.128C1388.25 191.441 1392.71 194.319 1396.75 197.696C1397.12 199.752 1397.3 201.835 1397.3 203.922V362.15H1408.25V232.046H1415.83V205.34H1435.84V198.108H1439.62V184.164H1443.68V198.108H1451.51V205.34H1463.4V218.766H1487.73V198.108H1493.68V224.965H1510.98V232.046H1523.37V305.572H1563.81V263.519H1558.83V258.761H1563.81V251.634H1558.83V246.881H1563.81V239.749H1558.83V234.996H1563.81V227.865H1558.83V223.112H1563.81V215.985H1558.83V211.232H1563.81V204.1H1558.83V199.347H1563.81V192.216H1558.83V187.463H1563.81V180.336H1558.83V175.578H1563.81V154.782H1583.72V130.821H1592.85V154.782H1603.21V144.682H1609.84V133.593H1618.28V144.682H1621.04V151.813H1626.43V144.682H1640.94V151.813H1647.02V122.5H1651.43V119.613H1654.47V113.012H1658.75V119.613H1664.98V122.518H1668.02V154.801H1672.72V175.596H1679.91V180.354H1672.72V187.481H1679.91V192.234H1672.72V199.366H1679.91V204.118H1672.72V211.25H1679.91V216.003H1672.72V223.13H1679.91V227.883H1672.72V235.015H1679.91V239.768H1672.72V246.899H1679.91V251.652H1672.72V258.779H1679.91V263.537H1672.72V362.132H1695.37L1849.76 362.127H1873.52V210.505H1881.73V181.324H1886.44V168.671H1890.75V181.324H1892.19V177.971H1900.59V174.183H1903.4V177.971H1909.14V181.324H1912.45V168.671H1915.63V181.324H1919.43V210.505H1928.4V167.252H1946.41V157.326H1952.45V152.092H1978.7V157.317H1988.7V167.243H1997.7V256.972H2021.23V168.671H2032.04V164.023H2060.15V150.08H2067.18V164.023H2076.64V158.341H2082.32V144.398H2087.58V158.341H2098.53V164.023H2121.23V168.671H2132.59V320.06H2165.39V271.112H2165.21L2172.39 264.251V249.008L2177.05 244.562V232.526L2181.64 228.144V223.739L2192.47 213.391V191.616H2193.09V189.947H2193.84V188.753H2194.49V184.178H2195.45V188.753H2196.01V189.947H2196.78V191.616H2197.43V213.391L2208.27 223.734V228.139L2212.86 232.522V244.557L2217.51 249.004V264.246L2224.69 271.108H2224.87V362.141H2236.74V256.982H2251.46V220.71H2254.93V210.495H2258.18V220.71H2264.48V212.389H2269.53V204.471H2272.4V212.389H2277.45V206.529H2285.74V212.385H2294.39V220.71H2300.92V238.093H2318.09V256.968H2340.5V341.935H2390.78V362.127H2508V438H114V400.057V362.113H229.869Z"
          fill="#D9DFEA"/>

    <defs>
        <linearGradient id="paint0_linear_1250_978" x1="721" y1="6" x2="721" y2="619.44" gradientUnits="userSpaceOnUse">
            <stop stop-color="#CACDD4"/>
            <stop offset="1" stop-color="#D0D6E5" stop-opacity="0.46"/>
        </linearGradient>
        <clipPath id="clip0_1250_978">
            <rect width="1440" height="436" fill="white"/>
        </clipPath>
    </defs>
</svg>
