<svg width="549" height="572" viewBox="0 0 549 572" fill="none" xmlns="http://www.w3.org/2000/svg">
<path fill-rule="evenodd" clip-rule="evenodd" d="M54.8146 527.841H67.3274L82.6044 555.166H76.0395V563.341H65.0322V555.166H57.1098V563.341H46.1025V555.166H39.5376L54.8146 527.841ZM79.8156 514.955V502.043L106.297 486.28V493.054H114.22V504.412H106.297V512.586H114.22V523.944H106.297V530.718L79.8156 514.955ZM67.3274 489.157H54.8146L39.5376 461.832H46.1025V453.632H57.1098V461.806H65.0322V453.632H76.0395V461.806H82.6044L67.3274 489.132V489.157ZM42.3264 502.043L42.3264 514.955L15.8446 530.718L15.8446 523.944H7.92232L7.92232 512.586H15.8446V504.412H7.92232L7.92232 493.054H15.8446V486.28L42.3264 502.043ZM50.2734 497.332H71.8686V519.64H50.2488L50.2488 497.332H50.2734ZM50.2734 519.64L25.8401 563.341H38.2049V571.515H84.0112V563.341H96.3759L71.9426 519.666L114.269 544.877V532.119H122.191V484.853H114.269V472.095L71.9426 497.306L96.3266 453.632H83.9618V445.457H38.1802V453.632H25.8154L50.2488 497.306L7.92232 472.095V484.853H0L0 532.119H7.92232L7.92232 544.877L50.2488 519.666L50.2734 519.64Z" fill="#3F3A32" fill-opacity="0.05"/>
<path fill-rule="evenodd" clip-rule="evenodd" d="M54.8146 379.355H67.3274L82.6044 406.68H76.0395V414.855H65.0322V406.68H57.1098V414.855H46.1025V406.68H39.5376L54.8146 379.355ZM79.8156 366.469V353.558L106.297 337.794V344.568H114.22V355.926H106.297V364.101H114.22V375.459H106.297V382.233L79.8156 366.469ZM67.3274 340.672H54.8146L39.5376 313.346H46.1025V305.146H57.1098V313.321H65.0322V305.146H76.0395V313.321H82.6044L67.3274 340.646V340.672ZM42.3264 353.558L42.3264 366.469L15.8446 382.233L15.8446 375.459H7.92232L7.92232 364.101H15.8446V355.926H7.92232L7.92232 344.568H15.8446V337.794L42.3264 353.558ZM50.2734 348.846H71.8686V371.155H50.2488L50.2488 348.846H50.2734ZM50.2734 371.155L25.8401 414.855H38.2049V423.03H84.0112V414.855H96.3759L71.9426 371.18L114.269 396.392V383.633H122.191V336.368H114.269V323.609L71.9426 348.821L96.3266 305.146H83.9618V296.972H38.1802V305.146H25.8154L50.2488 348.821L7.92232 323.609V336.368H0L0 383.633H7.92232L7.92232 396.392L50.2488 371.18L50.2734 371.155Z" fill="#3F3A32" fill-opacity="0.05"/>
<path fill-rule="evenodd" clip-rule="evenodd" d="M54.8145 230.869H67.3273L82.6043 258.194H76.0394V266.369H65.032V258.194H57.1097V266.369H46.1024V258.194H39.5375L54.8145 230.869ZM79.8154 217.983V205.072L106.297 189.308V196.082H114.22V207.44H106.297V215.615H114.22V226.973H106.297V233.747L79.8154 217.983ZM67.3273 192.186H54.8145L39.5375 164.86H46.1024V156.66H57.1097V164.835H65.032V156.66H76.0394V164.835H82.6043L67.3273 192.16V192.186ZM42.3263 205.072L42.3263 217.983L15.8445 233.747L15.8445 226.973H7.9222L7.9222 215.615H15.8445V207.44H7.9222L7.9222 196.082H15.8445V189.308L42.3263 205.072ZM50.2733 200.36H71.8684V222.669H50.2486L50.2486 200.36H50.2733ZM50.2733 222.669L25.84 266.369H38.2047V274.544H84.0111V266.369H96.3758L71.9425 222.694L114.269 247.906V235.147H122.191V187.882H114.269V175.123L71.9425 200.335L96.3265 156.66H83.9617V148.486H38.18V156.66H25.8153L50.2486 200.335L7.9222 175.123V187.882H-0.00012207L-0.00012207 235.147H7.9222L7.9222 247.906L50.2486 222.694L50.2733 222.669Z" fill="#3F3A32" fill-opacity="0.05"/>
<path fill-rule="evenodd" clip-rule="evenodd" d="M54.8146 82.3835H67.3274L82.6044 109.709H76.0395V117.883H65.0322V109.709H57.1098V117.883H46.1025V109.709H39.5376L54.8146 82.3835ZM79.8156 69.4975V56.5861L106.297 40.8225V47.5965H114.22V58.9545H106.297V67.1292H114.22V78.4871H106.297V85.2611L79.8156 69.4975ZM67.3274 43.7002L54.8146 43.7002L39.5376 16.3748H46.1025V8.17468L57.1098 8.17468V16.3494H65.0322V8.17468H76.0395V16.3494H82.6044L67.3274 43.6747V43.7002ZM42.3264 56.5861L42.3264 69.4975L15.8446 85.2611L15.8446 78.4871H7.92232L7.92232 67.1292H15.8446V58.9545H7.92232L7.92232 47.5965H15.8446V40.8225L42.3264 56.5861ZM50.2734 51.8748L71.8686 51.8748V74.1833H50.2488L50.2488 51.8748H50.2734ZM50.2734 74.1833L25.8401 117.883H38.2049V126.058H84.0112V117.883H96.3759L71.9426 74.2088L114.269 99.4204V86.6618H122.191V39.3964H114.269V26.6377L71.9426 51.8494L96.3266 8.17468H83.9618V0L38.1802 0V8.17468H25.8154L50.2488 51.8494L7.92232 26.6377V39.3964H0L0 86.6618H7.92232L7.92232 99.4204L50.2488 74.2088L50.2734 74.1833Z" fill="#3F3A32" fill-opacity="0.05"/>
<path fill-rule="evenodd" clip-rule="evenodd" d="M197.113 527.84H209.626L224.903 555.166H218.338V563.34H207.331V555.166H199.408V563.34H188.401V555.166H181.836L197.113 527.84ZM222.114 514.954V502.043L248.596 486.279V493.053H256.518V504.411H248.596V512.586H256.518V523.944H248.596V530.718L222.114 514.954ZM209.626 489.157H197.113L181.836 461.832H188.401V453.632H199.408V461.806H207.331V453.632H218.338V461.806H224.903L209.626 489.132V489.157ZM184.625 502.043V514.954L158.143 530.718V523.944H150.221V512.586H158.143V504.411H150.221V493.053H158.143V486.279L184.625 502.043ZM192.572 497.332H214.167V519.64H192.547V497.332H192.572ZM192.572 519.64L168.138 563.34H180.503V571.515H226.31V563.34H238.674L214.241 519.666L256.567 544.877V532.119H264.49V484.853H256.567V472.095L214.241 497.306L238.625 453.632H226.26V445.457H180.479V453.632H168.114L192.547 497.306L150.221 472.095V484.853H142.298V532.119H150.221V544.877L192.547 519.666L192.572 519.64Z" fill="#3F3A32" fill-opacity="0.05"/>
<path fill-rule="evenodd" clip-rule="evenodd" d="M339.412 527.84H351.925L367.202 555.166H360.637V563.34H349.63V555.166H341.707V563.34H330.7V555.166H324.135L339.412 527.84ZM364.413 514.954V502.043L390.895 486.279V493.053H398.817V504.411H390.895V512.586H398.817V523.944H390.895V530.718L364.413 514.954ZM351.925 489.157H339.412L324.135 461.832H330.7V453.632H341.707V461.806H349.63V453.632H360.637V461.806H367.202L351.925 489.132V489.157ZM326.924 502.043V514.954L300.442 530.718V523.944H292.52V512.586H300.442V504.411H292.52V493.053H300.442V486.279L326.924 502.043ZM334.871 497.332H356.466V519.64H334.846V497.332H334.871ZM334.871 519.64L310.438 563.34H322.802V571.515H368.609V563.34H380.973L356.54 519.666L398.866 544.877V532.119H406.789V484.853H398.866V472.095L356.54 497.306L380.924 453.632H368.559V445.457H322.778V453.632H310.413L334.846 497.306L292.52 472.095V484.853H284.597V532.119H292.52V544.877L334.846 519.666L334.871 519.64Z" fill="#3F3A32" fill-opacity="0.05"/>
<path fill-rule="evenodd" clip-rule="evenodd" d="M481.711 527.84H494.224L509.501 555.166H502.936V563.34H491.929V555.166H484.006V563.34H472.999V555.166H466.434L481.711 527.84ZM506.712 514.954V502.043L533.194 486.279V493.053H541.116V504.411H533.194V512.586H541.116V523.944H533.194V530.718L506.712 514.954ZM494.224 489.157H481.711L466.434 461.832H472.999V453.632H484.006V461.806H491.929V453.632H502.936V461.806H509.501L494.224 489.132V489.157ZM469.223 502.043V514.954L442.741 530.718V523.944H434.819V512.586H442.741V504.411H434.819V493.053H442.741V486.279L469.223 502.043ZM477.17 497.332H498.765V519.64H477.145V497.332H477.17ZM477.17 519.64L452.737 563.34H465.101V571.515H510.908V563.34H523.272L498.839 519.666L541.166 544.877V532.119H549.088V484.853H541.166V472.095L498.839 497.306L523.223 453.632H510.858V445.457H465.077V453.632H452.712L477.145 497.306L434.819 472.095V484.853H426.896V532.119H434.819V544.877L477.145 519.666L477.17 519.64Z" fill="#3F3A32" fill-opacity="0.05"/>
<path fill-rule="evenodd" clip-rule="evenodd" d="M197.114 379.355H209.626L224.903 406.68H218.339V414.855H207.331V406.68H199.409V414.855H188.402V406.68H181.837L197.114 379.355ZM222.115 366.469V353.557L248.596 337.794V344.568H256.519V355.926H248.596V364.1H256.519V375.458H248.596V382.232L222.115 366.469ZM209.626 340.671H197.114L181.837 313.346H188.402V305.146H199.409V313.32H207.331V305.146H218.339V313.32H224.903L209.626 340.646V340.671ZM184.626 353.557V366.469L158.144 382.232V375.458H150.221V364.1H158.144V355.926H150.221V344.568H158.144V337.794L184.626 353.557ZM192.573 348.846H214.168V371.154H192.548V348.846H192.573ZM192.573 371.154L168.139 414.855H180.504V423.029H226.31V414.855H238.675L214.242 371.18L256.568 396.391V383.633H264.49V336.367H256.568V323.609L214.242 348.82L238.626 305.146H226.261V296.971H180.479V305.146H168.114L192.548 348.82L150.221 323.609V336.367H142.299V383.633H150.221V396.391L192.548 371.18L192.573 371.154Z" fill="#3F3A32" fill-opacity="0.05"/>
<path fill-rule="evenodd" clip-rule="evenodd" d="M339.412 379.355H351.925L367.202 406.68H360.637V414.855H349.63V406.68H341.707V414.855H330.7V406.68H324.135L339.412 379.355ZM364.413 366.469V353.557L390.895 337.794V344.568H398.817V355.926H390.895V364.1H398.817V375.458H390.895V382.232L364.413 366.469ZM351.925 340.671H339.412L324.135 313.346H330.7V305.146H341.707V313.32H349.63V305.146H360.637V313.32H367.202L351.925 340.646V340.671ZM326.924 353.557V366.469L300.442 382.232V375.458H292.52V364.1H300.442V355.926H292.52V344.568H300.442V337.794L326.924 353.557ZM334.871 348.846H356.466V371.154H334.846V348.846H334.871ZM334.871 371.154L310.438 414.855H322.802V423.029H368.609V414.855H380.973L356.54 371.18L398.866 396.391V383.633H406.789V336.367H398.866V323.609L356.54 348.82L380.924 305.146H368.559V296.971H322.778V305.146H310.413L334.846 348.82L292.52 323.609V336.367H284.597V383.633H292.52V396.391L334.846 371.18L334.871 371.154Z" fill="#3F3A32" fill-opacity="0.05"/>
<path fill-rule="evenodd" clip-rule="evenodd" d="M481.711 379.355H494.224L509.501 406.68H502.936V414.855H491.929V406.68H484.006V414.855H472.999V406.68H466.434L481.711 379.355ZM506.712 366.469V353.557L533.194 337.794V344.568H541.116V355.926H533.194V364.1H541.116V375.458H533.194V382.232L506.712 366.469ZM494.224 340.671H481.711L466.434 313.346H472.999V305.146H484.006V313.32H491.929V305.146H502.936V313.32H509.501L494.224 340.646V340.671ZM469.223 353.557V366.469L442.741 382.232V375.458H434.819V364.1H442.741V355.926H434.819V344.568H442.741V337.794L469.223 353.557ZM477.17 348.846H498.765V371.154H477.145V348.846H477.17ZM477.17 371.154L452.737 414.855H465.101V423.029H510.908V414.855H523.272L498.839 371.18L541.166 396.391V383.633H549.088V336.367H541.166V323.609L498.839 348.82L523.223 305.146H510.858V296.971H465.077V305.146H452.712L477.145 348.82L434.819 323.609V336.367H426.896V383.633H434.819V396.391L477.145 371.18L477.17 371.154Z" fill="#3F3A32" fill-opacity="0.05"/>
<path fill-rule="evenodd" clip-rule="evenodd" d="M197.114 230.869H209.626L224.903 258.194H218.339V266.369H207.331V258.194H199.409V266.369H188.402V258.194H181.837L197.114 230.869ZM222.115 217.983V205.072L248.596 189.308V196.082H256.519V207.44H248.596V215.615H256.519V226.973H248.596V233.747L222.115 217.983ZM209.626 192.186H197.114L181.837 164.86H188.402V156.66H199.409V164.835H207.331V156.66H218.339V164.835H224.903L209.626 192.16V192.186ZM184.626 205.072V217.983L158.144 233.747V226.973H150.221V215.615H158.144V207.44H150.221V196.082H158.144V189.308L184.626 205.072ZM192.573 200.36H214.168V222.669H192.548V200.36H192.573ZM192.573 222.669L168.139 266.369H180.504V274.544H226.31V266.369H238.675L214.242 222.694L256.568 247.906V235.147H264.49V187.882H256.568V175.123L214.242 200.335L238.626 156.66H226.261V148.486H180.479V156.66H168.114L192.548 200.335L150.221 175.123V187.882H142.299V235.147H150.221V247.906L192.548 222.694L192.573 222.669Z" fill="#3F3A32" fill-opacity="0.05"/>
<path fill-rule="evenodd" clip-rule="evenodd" d="M339.412 230.869H351.925L367.202 258.194H360.637V266.369H349.63V258.194H341.707V266.369H330.7V258.194H324.135L339.412 230.869ZM364.413 217.983V205.072L390.895 189.308V196.082H398.817V207.44H390.895V215.615H398.817V226.973H390.895V233.747L364.413 217.983ZM351.925 192.186H339.412L324.135 164.86H330.7V156.66H341.707V164.835H349.63V156.66H360.637V164.835H367.202L351.925 192.16V192.186ZM326.924 205.072V217.983L300.442 233.747V226.973H292.52V215.615H300.442V207.44H292.52V196.082H300.442V189.308L326.924 205.072ZM334.871 200.36H356.466V222.669H334.846V200.36H334.871ZM334.871 222.669L310.438 266.369H322.802V274.544H368.609V266.369H380.973L356.54 222.694L398.866 247.906V235.147H406.789V187.882H398.866V175.123L356.54 200.335L380.924 156.66H368.559V148.486H322.778V156.66H310.413L334.846 200.335L292.52 175.123V187.882H284.597V235.147H292.52V247.906L334.846 222.694L334.871 222.669Z" fill="#3F3A32" fill-opacity="0.05"/>
<path fill-rule="evenodd" clip-rule="evenodd" d="M481.711 230.869H494.224L509.501 258.194H502.936V266.369H491.929V258.194H484.006V266.369H472.999V258.194H466.434L481.711 230.869ZM506.712 217.983V205.072L533.194 189.308V196.082H541.116V207.44H533.194V215.615H541.116V226.973H533.194V233.747L506.712 217.983ZM494.224 192.186H481.711L466.434 164.86H472.999V156.66H484.006V164.835H491.929V156.66H502.936V164.835H509.501L494.224 192.16V192.186ZM469.223 205.072V217.983L442.741 233.747V226.973H434.819V215.615H442.741V207.44H434.819V196.082H442.741V189.308L469.223 205.072ZM477.17 200.36H498.765V222.669H477.145V200.36H477.17ZM477.17 222.669L452.737 266.369H465.101V274.544H510.908V266.369H523.272L498.839 222.694L541.166 247.906V235.147H549.088V187.882H541.166V175.123L498.839 200.335L523.223 156.66H510.858V148.486H465.077V156.66H452.712L477.145 200.335L434.819 175.123V187.882H426.896V235.147H434.819V247.906L477.145 222.694L477.17 222.669Z" fill="#3F3A32" fill-opacity="0.05"/>
<path fill-rule="evenodd" clip-rule="evenodd" d="M197.114 82.3834H209.626L224.903 109.709H218.339V117.883H207.331V109.709H199.409V117.883H188.402V109.709H181.837L197.114 82.3834ZM222.115 69.4975V56.5861L248.596 40.8224V47.5965H256.519V58.9544H248.596V67.1291H256.519V78.4871H248.596V85.2611L222.115 69.4975ZM209.626 43.7001L197.114 43.7001L181.837 16.3748H188.402V8.17465L199.409 8.17465V16.3493H207.331V8.17465H218.339V16.3493H224.903L209.626 43.6747V43.7001ZM184.626 56.5861V69.4975L158.144 85.2611V78.4871H150.221V67.1291H158.144V58.9544H150.221V47.5965H158.144V40.8224L184.626 56.5861ZM192.573 51.8748L214.168 51.8748V74.1833H192.548V51.8748H192.573ZM192.573 74.1833L168.139 117.883H180.504V126.058H226.31V117.883H238.675L214.242 74.2087L256.568 99.4204V86.6618H264.49V39.3963H256.568V26.6377L214.242 51.8493L238.626 8.17465H226.261V-3.05176e-05L180.479 -3.05176e-05V8.17465H168.114L192.548 51.8493L150.221 26.6377V39.3963H142.299V86.6618H150.221V99.4204L192.548 74.2087L192.573 74.1833Z" fill="#3F3A32" fill-opacity="0.05"/>
<path fill-rule="evenodd" clip-rule="evenodd" d="M339.412 82.3834H351.925L367.202 109.709H360.637V117.883H349.63V109.709H341.707V117.883H330.7V109.709H324.135L339.412 82.3834ZM364.413 69.4975V56.5861L390.895 40.8224V47.5965H398.817V58.9544H390.895V67.1291H398.817V78.4871H390.895V85.2611L364.413 69.4975ZM351.925 43.7001L339.412 43.7001L324.135 16.3748H330.7V8.17465L341.707 8.17465V16.3493H349.63V8.17465H360.637V16.3493H367.202L351.925 43.6747V43.7001ZM326.924 56.5861V69.4975L300.442 85.2611V78.4871H292.52V67.1291H300.442V58.9544H292.52V47.5965H300.442V40.8224L326.924 56.5861ZM334.871 51.8748L356.466 51.8748V74.1833H334.846V51.8748H334.871ZM334.871 74.1833L310.438 117.883H322.802V126.058H368.609V117.883H380.973L356.54 74.2087L398.866 99.4204V86.6618H406.789V39.3963H398.866V26.6377L356.54 51.8493L380.924 8.17465H368.559V-3.05176e-05L322.778 -3.05176e-05V8.17465H310.413L334.846 51.8493L292.52 26.6377V39.3963H284.597V86.6618H292.52V99.4204L334.846 74.2087L334.871 74.1833Z" fill="#3F3A32" fill-opacity="0.05"/>
<path fill-rule="evenodd" clip-rule="evenodd" d="M481.711 82.3834H494.224L509.501 109.709H502.936V117.883H491.929V109.709H484.006V117.883H472.999V109.709H466.434L481.711 82.3834ZM506.712 69.4975V56.5861L533.194 40.8224V47.5965H541.116V58.9544H533.194V67.1291H541.116V78.4871H533.194V85.2611L506.712 69.4975ZM494.224 43.7001L481.711 43.7001L466.434 16.3748H472.999V8.17465L484.006 8.17465V16.3493H491.929V8.17465H502.936V16.3493H509.501L494.224 43.6747V43.7001ZM469.223 56.5861V69.4975L442.741 85.2611V78.4871H434.819V67.1291H442.741V58.9544H434.819V47.5965H442.741V40.8224L469.223 56.5861ZM477.17 51.8748L498.765 51.8748V74.1833H477.145V51.8748H477.17ZM477.17 74.1833L452.737 117.883H465.101V126.058H510.908V117.883H523.272L498.839 74.2087L541.166 99.4204V86.6618H549.088V39.3963H541.166V26.6377L498.839 51.8493L523.223 8.17465H510.858V-3.05176e-05L465.077 -3.05176e-05V8.17465H452.712L477.145 51.8493L434.819 26.6377V39.3963H426.896V86.6618H434.819V99.4204L477.145 74.2087L477.17 74.1833Z" fill="#3F3A32" fill-opacity="0.05"/>
</svg>
