<svg xmlns="http://www.w3.org/2000/svg" width="187" height="50" fill="none"><g clip-path="url(#a)"><path fill="#FDC300" fill-rule="evenodd" d="M21.528 32.677h4.914l6 10.838h-2.578v3.243h-4.323v-3.243H22.43v3.243h-4.324v-3.243h-2.578zm9.819-5.111v-5.122l10.4-6.252v2.687h3.112v4.505h-3.111v3.242h3.111v4.505h-3.111v2.687zm-4.905-10.233h-4.914l-6-10.838h2.578V3.242h4.323v3.243h3.112V3.242h4.323v3.243h2.578l-6 10.838zm-9.819 5.111v5.122l-10.4 6.252v-2.687H3.11v-4.505h3.112v-3.242H3.11v-4.505h3.112v-2.687zm3.121-1.868h8.482v8.848h-8.491v-8.848zm0 8.848L10.15 46.758h4.856V50h17.99v-3.242h4.856l-9.596-17.324 16.623 10v-5.06h3.112V15.626h-3.112v-5.06l-16.623 10 9.577-17.324h-4.857V0h-17.98v3.242h-4.856l9.596 17.324-16.624-10v5.06H0v18.748h3.111v5.06l16.624-10z" clip-rule="evenodd"/><path fill="#1D1D1B" d="M173.91 23.94h4.372v10.444h3.596V23.939h4.371v-3.212H173.91zm-11.69 3.615c0-2.575 1.386-4.02 3.209-4.02 1.948 0 3.344 1.445 3.344 4.02 0 2.576-1.386 4.02-3.344 4.02-1.823 0-3.209-1.444-3.209-4.02m-3.731 0c0 4.425 2.694 7.233 6.038 7.233 1.445 0 2.414-.536 3.112-1.071.387-.323.717-.667.998-1.07h.126v1.737h3.596V20.727h-3.596v1.737h-.126a5.7 5.7 0 0 0-.998-1.07c-.698-.536-1.667-1.071-3.112-1.071-3.344 0-6.038 2.808-6.038 7.232m-27.247 0c0-2.414 1.541-4.02 3.47-4.02s3.47 1.606 3.47 4.02c0 2.415-1.541 4.02-3.47 4.02s-3.47-1.605-3.47-4.02m-3.722 0c0 4.02 3.053 7.233 7.192 7.233s7.192-3.212 7.192-7.233-3.112-7.232-7.192-7.232c-4.081 0-7.192 3.212-7.192 7.232m-11.7 0c0-2.575 1.386-4.02 3.344-4.02 1.823 0 3.218 1.445 3.218 4.02 0 2.576-1.386 4.02-3.218 4.02-1.958 0-3.344-1.444-3.344-4.02m-3.596 11.92h3.596v-6.829h.126a5.5 5.5 0 0 0 1.008 1.07 4.87 4.87 0 0 0 3.112 1.072c3.344 0 6.038-2.808 6.038-7.233s-2.694-7.232-6.038-7.232c-1.445 0-2.414.535-3.112 1.07a5.8 5.8 0 0 0-1.008 1.071h-.126v-1.737h-3.596zm-27.886-11.92c0-2.414 1.54-4.02 3.47-4.02 1.928 0 3.47 1.606 3.47 4.02 0 2.415-1.541 4.02-3.47 4.02s-3.47-1.605-3.47-4.02m-3.732 0c0 4.02 3.063 7.233 7.202 7.233S95 31.576 95 27.555s-3.112-7.232-7.192-7.232c-4.081 0-7.202 3.212-7.202 7.232M65.96 30.636l2.83-11.252h2.443l2.83 11.252h-8.104m34.313-2.545c0-2.04 1.26-3.344 3.082-3.344s3.082 1.313 3.082 3.344c0 2.141-1.26 3.485-3.082 3.485s-3.082-1.344-3.082-3.485m-3.722-1.475c0 5.06 2.985 8.172 6.814 8.172 4.11 0 6.814-2.95 6.814-6.697 0-3.748-2.549-6.293-5.913-6.293-1.434 0-2.413.485-3.063.94-.387.292-.698.585-.921.939h-.126v-4.819h8.869v-3.212H96.56v10.98zm50.636 1.475c0-2.04 1.26-3.344 3.082-3.344s3.082 1.313 3.082 3.344c0 2.141-1.26 3.485-3.082 3.485s-3.082-1.344-3.082-3.485m-3.722-1.475c0 5.06 2.975 8.172 6.814 8.172 4.109 0 6.814-2.95 6.814-6.697 0-3.748-2.549-6.293-5.913-6.293-1.434 0-2.413.485-3.063.94-.388.292-.688.585-.921.939h-.126v-4.819h8.869v-3.212h-12.465v10.98zM60.192 37.727h3.722v-3.343h12.214v3.343h3.731v-7.101h-2.054l-3.723-15H65.99l-3.722 15h-2.055v7.101z"/></g><defs><clipPath id="a"><path fill="#fff" d="M0 0h186.25v50H0z"/></clipPath></defs></svg>